# xmcd
#
# Track frame offsets:
# 150
# 14442
# 27682
# 45909
# 59459
# 77569
# 90447
# 110365
# 124799
# 141874
# 154409
# 168509
# 184672
# 200279
#
# Disc length: 2879 seconds
#
#
# Revision: 0
# Processed by: cddbd v1.5.2PL0 Copyright (c) Steve Scherf et al.
# Submitted via: FreeRIP 2.945 
#
DISCID=b50b3d0e
DTITLE=João Bosco e Vinicius  - volume 3
DYEAR=1900
DGENRE=
TTITLE0=Quanto mais muié mió
TTITLE1=Boca a Boca
TTITLE2=Madrugada
TTITLE3=Seu pai pirou
TTITLE4=É pra enlouquecer
TTITLE5=O chão balança
TTITLE6=Precisa Voltar
TTITLE7=Pega leve
TTITLE8=Sol de um novo dia
TTITLE9=Chorei de novo
TTITLE10=Levada
TTITLE11=Quando deus te fez
TTITLE12=Feito espora
TTITLE13=Pra nunca mais dizer seu nome
EXTD=
EXTT0=
EXTT1=
EXTT2=
EXTT3=
EXTT4=
EXTT5=
EXTT6=
EXTT7=
EXTT8=
EXTT9=
EXTT10=
EXTT11=
EXTT12=
EXTT13=
PLAYORDER=
